<svg width="500" height="469" viewBox="0 0 500 469" fill="none" xmlns="http://www.w3.org/2000/svg">
<path d="M437.5 378.375V344H143.75L162.5 309.625L450 281.5L500 94H115.625L93.75 0.25H0V31.5H68.75L134.375 294L93.75 375.25V422.125C93.75 447.125 115.625 469 140.625 469C165.625 469 187.5 447.125 187.5 422.125C187.5 397.125 165.625 375.25 140.625 375.25H375V422.125C375 447.125 396.875 469 421.875 469C446.875 469 468.75 447.125 468.75 422.125C468.75 400.25 456.25 384.625 437.5 378.375Z" fill="#F8F8F8"/>
</svg>
